<mxfile host="app.diagrams.net" modified="2023-12-18T02:24:21.320Z" agent="Mozilla/5.0 (Windows NT 10.0; Win64; x64) AppleWebKit/537.36 (KHTML, like Gecko) Chrome/119.0.0.0 Safari/537.36 OPR/105.0.0.0" etag="ibh-zxZX9RusykhCuHVj" version="22.1.11" type="device">
  <diagram name="Страница — 1" id="W_3PTRnj2WENaTMhvB09">
    <mxGraphModel dx="1641" dy="771" grid="1" gridSize="10" guides="1" tooltips="1" connect="1" arrows="1" fold="1" page="1" pageScale="1" pageWidth="827" pageHeight="1169" math="0" shadow="0">
      <root>
        <mxCell id="0" />
        <mxCell id="1" parent="0" />
        <mxCell id="Pot6HcV86-To3-xKPh4n-5" style="edgeStyle=orthogonalEdgeStyle;rounded=0;orthogonalLoop=1;jettySize=auto;html=1;exitX=0.5;exitY=1;exitDx=0;exitDy=0;entryX=0.5;entryY=0;entryDx=0;entryDy=0;" edge="1" parent="1" source="Pot6HcV86-To3-xKPh4n-1" target="Pot6HcV86-To3-xKPh4n-2">
          <mxGeometry relative="1" as="geometry" />
        </mxCell>
        <mxCell id="Pot6HcV86-To3-xKPh4n-1" value="&lt;font style=&quot;font-size: 14px;&quot;&gt;sliynie&lt;br&gt;начало&lt;/font&gt;" style="ellipse;whiteSpace=wrap;html=1;" vertex="1" parent="1">
          <mxGeometry x="80" y="40" width="120" height="40" as="geometry" />
        </mxCell>
        <mxCell id="Pot6HcV86-To3-xKPh4n-2" value="&lt;font style=&quot;font-size: 11px;&quot;&gt;r := (p + q) div 2&lt;br&gt;i := p&lt;br&gt;y := r + 1&lt;br&gt;k := p&lt;/font&gt;" style="rounded=0;whiteSpace=wrap;html=1;" vertex="1" parent="1">
          <mxGeometry x="80" y="100" width="120" height="60" as="geometry" />
        </mxCell>
        <mxCell id="Pot6HcV86-To3-xKPh4n-7" style="edgeStyle=orthogonalEdgeStyle;rounded=0;orthogonalLoop=1;jettySize=auto;html=1;exitX=0.5;exitY=1;exitDx=0;exitDy=0;exitPerimeter=0;entryX=0.5;entryY=0;entryDx=0;entryDy=0;" edge="1" parent="1" source="Pot6HcV86-To3-xKPh4n-3" target="Pot6HcV86-To3-xKPh4n-4">
          <mxGeometry relative="1" as="geometry" />
        </mxCell>
        <mxCell id="Pot6HcV86-To3-xKPh4n-3" value="&lt;font style=&quot;font-size: 14px;&quot;&gt;цикл 1&lt;br&gt;k = q&lt;/font&gt;" style="strokeWidth=2;html=1;shape=mxgraph.flowchart.loop_limit;whiteSpace=wrap;" vertex="1" parent="1">
          <mxGeometry x="80" y="180" width="120" height="40" as="geometry" />
        </mxCell>
        <mxCell id="Pot6HcV86-To3-xKPh4n-9" style="edgeStyle=orthogonalEdgeStyle;rounded=0;orthogonalLoop=1;jettySize=auto;html=1;exitX=0.5;exitY=1;exitDx=0;exitDy=0;entryX=0.5;entryY=0;entryDx=0;entryDy=0;" edge="1" parent="1" source="Pot6HcV86-To3-xKPh4n-4" target="Pot6HcV86-To3-xKPh4n-8">
          <mxGeometry relative="1" as="geometry" />
        </mxCell>
        <mxCell id="Pot6HcV86-To3-xKPh4n-12" style="edgeStyle=orthogonalEdgeStyle;rounded=0;orthogonalLoop=1;jettySize=auto;html=1;exitX=1;exitY=0.5;exitDx=0;exitDy=0;entryX=0.5;entryY=0;entryDx=0;entryDy=0;" edge="1" parent="1" source="Pot6HcV86-To3-xKPh4n-4" target="Pot6HcV86-To3-xKPh4n-11">
          <mxGeometry relative="1" as="geometry">
            <Array as="points">
              <mxPoint x="220" y="275" />
              <mxPoint x="220" y="390" />
              <mxPoint x="140" y="390" />
            </Array>
          </mxGeometry>
        </mxCell>
        <mxCell id="Pot6HcV86-To3-xKPh4n-4" value="i &amp;lt;= r и&amp;nbsp;y &amp;gt; q&lt;br&gt;или&amp;nbsp;a[i] &amp;lt; a[y]&amp;nbsp;" style="rhombus;whiteSpace=wrap;html=1;" vertex="1" parent="1">
          <mxGeometry x="80" y="240" width="120" height="70" as="geometry" />
        </mxCell>
        <mxCell id="Pot6HcV86-To3-xKPh4n-6" style="edgeStyle=orthogonalEdgeStyle;rounded=0;orthogonalLoop=1;jettySize=auto;html=1;exitX=0.5;exitY=1;exitDx=0;exitDy=0;entryX=0.5;entryY=0;entryDx=0;entryDy=0;entryPerimeter=0;" edge="1" parent="1" source="Pot6HcV86-To3-xKPh4n-2" target="Pot6HcV86-To3-xKPh4n-3">
          <mxGeometry relative="1" as="geometry" />
        </mxCell>
        <mxCell id="Pot6HcV86-To3-xKPh4n-16" style="edgeStyle=orthogonalEdgeStyle;rounded=0;orthogonalLoop=1;jettySize=auto;html=1;exitX=0.5;exitY=1;exitDx=0;exitDy=0;" edge="1" parent="1" source="Pot6HcV86-To3-xKPh4n-8">
          <mxGeometry relative="1" as="geometry">
            <mxPoint x="140" y="450" as="targetPoint" />
            <Array as="points">
              <mxPoint x="140" y="380" />
              <mxPoint x="70" y="380" />
              <mxPoint x="70" y="450" />
            </Array>
          </mxGeometry>
        </mxCell>
        <mxCell id="Pot6HcV86-To3-xKPh4n-8" value="&lt;font style=&quot;font-size: 14px;&quot;&gt;b[k] := a[i]&lt;br&gt;i := i + 1&lt;/font&gt;" style="rounded=0;whiteSpace=wrap;html=1;" vertex="1" parent="1">
          <mxGeometry x="80" y="330" width="120" height="40" as="geometry" />
        </mxCell>
        <mxCell id="Pot6HcV86-To3-xKPh4n-10" value="да" style="text;html=1;strokeColor=none;fillColor=none;align=center;verticalAlign=middle;whiteSpace=wrap;rounded=0;" vertex="1" parent="1">
          <mxGeometry x="130" y="300" width="60" height="30" as="geometry" />
        </mxCell>
        <mxCell id="Pot6HcV86-To3-xKPh4n-15" style="edgeStyle=orthogonalEdgeStyle;rounded=0;orthogonalLoop=1;jettySize=auto;html=1;exitX=0.5;exitY=1;exitDx=0;exitDy=0;entryX=0.5;entryY=0;entryDx=0;entryDy=0;" edge="1" parent="1" source="Pot6HcV86-To3-xKPh4n-11" target="Pot6HcV86-To3-xKPh4n-14">
          <mxGeometry relative="1" as="geometry" />
        </mxCell>
        <mxCell id="Pot6HcV86-To3-xKPh4n-11" value="&lt;font style=&quot;font-size: 14px;&quot;&gt;b[k] := a[y]&lt;br&gt;y := y + 1&lt;/font&gt;" style="rounded=0;whiteSpace=wrap;html=1;" vertex="1" parent="1">
          <mxGeometry x="80" y="400" width="120" height="40" as="geometry" />
        </mxCell>
        <mxCell id="Pot6HcV86-To3-xKPh4n-13" value="&lt;font style=&quot;font-size: 14px;&quot;&gt;k = p&lt;/font&gt;" style="rounded=0;whiteSpace=wrap;html=1;" vertex="1" parent="1">
          <mxGeometry x="80" y="570" width="120" height="30" as="geometry" />
        </mxCell>
        <mxCell id="Pot6HcV86-To3-xKPh4n-14" value="&lt;font style=&quot;font-size: 14px;&quot;&gt;k = k+1&lt;/font&gt;" style="rounded=0;whiteSpace=wrap;html=1;" vertex="1" parent="1">
          <mxGeometry x="80" y="470" width="120" height="30" as="geometry" />
        </mxCell>
        <mxCell id="Pot6HcV86-To3-xKPh4n-20" style="edgeStyle=orthogonalEdgeStyle;rounded=0;orthogonalLoop=1;jettySize=auto;html=1;exitX=0.5;exitY=0;exitDx=0;exitDy=0;exitPerimeter=0;entryX=0.5;entryY=0;entryDx=0;entryDy=0;" edge="1" parent="1" source="Pot6HcV86-To3-xKPh4n-17" target="Pot6HcV86-To3-xKPh4n-13">
          <mxGeometry relative="1" as="geometry" />
        </mxCell>
        <mxCell id="Pot6HcV86-To3-xKPh4n-17" value="" style="strokeWidth=2;html=1;shape=mxgraph.flowchart.loop_limit;whiteSpace=wrap;rotation=-180;" vertex="1" parent="1">
          <mxGeometry x="80" y="520" width="120" height="35" as="geometry" />
        </mxCell>
        <mxCell id="Pot6HcV86-To3-xKPh4n-18" value="цикл 1" style="text;html=1;strokeColor=none;fillColor=none;align=center;verticalAlign=middle;whiteSpace=wrap;rounded=0;" vertex="1" parent="1">
          <mxGeometry x="110" y="522.5" width="60" height="30" as="geometry" />
        </mxCell>
        <mxCell id="Pot6HcV86-To3-xKPh4n-19" style="edgeStyle=orthogonalEdgeStyle;rounded=0;orthogonalLoop=1;jettySize=auto;html=1;exitX=0.5;exitY=1;exitDx=0;exitDy=0;entryX=0.5;entryY=1;entryDx=0;entryDy=0;entryPerimeter=0;" edge="1" parent="1" source="Pot6HcV86-To3-xKPh4n-14" target="Pot6HcV86-To3-xKPh4n-17">
          <mxGeometry relative="1" as="geometry" />
        </mxCell>
        <mxCell id="Pot6HcV86-To3-xKPh4n-21" value="&lt;font style=&quot;font-size: 14px;&quot;&gt;a[k] := b[k]&lt;br&gt;k = k+1&lt;/font&gt;" style="rounded=0;whiteSpace=wrap;html=1;" vertex="1" parent="1">
          <mxGeometry x="80" y="680" width="120" height="35" as="geometry" />
        </mxCell>
        <mxCell id="Pot6HcV86-To3-xKPh4n-25" style="edgeStyle=orthogonalEdgeStyle;rounded=0;orthogonalLoop=1;jettySize=auto;html=1;exitX=0.5;exitY=1;exitDx=0;exitDy=0;exitPerimeter=0;" edge="1" parent="1" source="Pot6HcV86-To3-xKPh4n-23" target="Pot6HcV86-To3-xKPh4n-21">
          <mxGeometry relative="1" as="geometry" />
        </mxCell>
        <mxCell id="Pot6HcV86-To3-xKPh4n-23" value="&lt;font style=&quot;font-size: 14px;&quot;&gt;цикл 2&lt;br&gt;k = q&lt;/font&gt;" style="strokeWidth=2;html=1;shape=mxgraph.flowchart.loop_limit;whiteSpace=wrap;" vertex="1" parent="1">
          <mxGeometry x="80" y="620" width="120" height="40" as="geometry" />
        </mxCell>
        <mxCell id="Pot6HcV86-To3-xKPh4n-24" style="edgeStyle=orthogonalEdgeStyle;rounded=0;orthogonalLoop=1;jettySize=auto;html=1;exitX=0.5;exitY=1;exitDx=0;exitDy=0;entryX=0.5;entryY=0;entryDx=0;entryDy=0;entryPerimeter=0;" edge="1" parent="1" source="Pot6HcV86-To3-xKPh4n-13" target="Pot6HcV86-To3-xKPh4n-23">
          <mxGeometry relative="1" as="geometry" />
        </mxCell>
        <mxCell id="Pot6HcV86-To3-xKPh4n-31" style="edgeStyle=orthogonalEdgeStyle;rounded=0;orthogonalLoop=1;jettySize=auto;html=1;exitX=0.5;exitY=0;exitDx=0;exitDy=0;exitPerimeter=0;entryX=0.5;entryY=0;entryDx=0;entryDy=0;" edge="1" parent="1" source="Pot6HcV86-To3-xKPh4n-26" target="Pot6HcV86-To3-xKPh4n-27">
          <mxGeometry relative="1" as="geometry" />
        </mxCell>
        <mxCell id="Pot6HcV86-To3-xKPh4n-26" value="" style="strokeWidth=2;html=1;shape=mxgraph.flowchart.loop_limit;whiteSpace=wrap;rotation=-180;" vertex="1" parent="1">
          <mxGeometry x="80" y="730" width="120" height="40" as="geometry" />
        </mxCell>
        <mxCell id="Pot6HcV86-To3-xKPh4n-27" value="&lt;font style=&quot;font-size: 14px;&quot;&gt;sliynie&lt;br&gt;конец&lt;/font&gt;" style="ellipse;whiteSpace=wrap;html=1;" vertex="1" parent="1">
          <mxGeometry x="80" y="790" width="120" height="40" as="geometry" />
        </mxCell>
        <mxCell id="Pot6HcV86-To3-xKPh4n-28" value="&lt;font style=&quot;font-size: 14px;&quot;&gt;цикл 2&lt;/font&gt;" style="text;html=1;strokeColor=none;fillColor=none;align=center;verticalAlign=middle;whiteSpace=wrap;rounded=0;" vertex="1" parent="1">
          <mxGeometry x="110" y="735" width="60" height="30" as="geometry" />
        </mxCell>
        <mxCell id="Pot6HcV86-To3-xKPh4n-29" style="edgeStyle=orthogonalEdgeStyle;rounded=0;orthogonalLoop=1;jettySize=auto;html=1;exitX=0.5;exitY=1;exitDx=0;exitDy=0;entryX=0.5;entryY=1;entryDx=0;entryDy=0;entryPerimeter=0;" edge="1" parent="1" source="Pot6HcV86-To3-xKPh4n-21" target="Pot6HcV86-To3-xKPh4n-26">
          <mxGeometry relative="1" as="geometry" />
        </mxCell>
      </root>
    </mxGraphModel>
  </diagram>
</mxfile>
